<svg width="165" height="40" viewBox="0 0 165 40" fill="none" xmlns="http://www.w3.org/2000/svg">
<path d="M52.2306 15.3662H46.1509V11.397H63.4447V15.3662H57.3652V33.9203H52.2321L52.2306 15.3662Z" fill="black"/>
<path d="M61.0825 25.8557V25.6033C61.0825 20.4368 64.8312 17.0659 69.7765 17.0659C74.7219 17.0659 78.4393 20.3737 78.4393 25.5082V25.7607C78.4393 30.9585 74.6906 34.2654 69.7446 34.2654C64.8312 34.2663 61.0825 30.9939 61.0825 25.8557ZM73.8087 25.7928V25.5723C73.8087 22.4227 72.3279 20.5319 69.7765 20.5319C67.2606 20.5319 65.7459 22.3595 65.7459 25.5091V25.7615C65.7459 28.9111 67.1948 30.8011 69.7783 30.8011C72.3279 30.8011 73.8087 28.9111 73.8087 25.7928Z" fill="black"/>
<path d="M81.7094 29.0374V20.6902H79.5991V17.4463H81.7094V13.8853H86.2449V17.4463H89.7101V20.691H86.2449V28.6284C86.2449 29.9521 86.9072 30.5815 88.0726 30.5815C88.765 30.5815 89.269 30.4873 89.8052 30.2668V33.7952C88.9112 34.0988 87.9723 34.2478 87.0283 34.236C83.5675 34.2351 81.7094 32.4715 81.7094 29.0374Z" fill="black"/>
<path d="M91.8071 29.3522C91.8071 25.5091 95.3353 24.0602 100.376 24.0602H102.234V23.3988C102.234 21.4457 101.635 20.3746 99.556 20.3746C97.7612 20.3746 96.9415 21.2884 96.7531 22.7053H92.4373C92.721 18.7993 95.8032 17.0676 99.8422 17.0676C103.881 17.0676 106.742 18.706 106.742 23.1792V33.9205H102.3V31.9355C101.355 33.2582 99.9062 34.2663 97.3227 34.2663C94.3272 34.2663 91.8071 32.8172 91.8071 29.3522ZM102.234 28.1555V26.7696H100.467C97.8202 26.7696 96.2769 27.3368 96.2769 29.1004C96.2769 30.2971 97.0014 31.0846 98.6708 31.0846C100.69 31.0846 102.234 29.9841 102.234 28.1555Z" fill="black"/>
<path d="M109.902 17.4463H114.467V20.0607C115.286 18.4224 117.081 17.0676 119.822 17.0676C123.066 17.0676 125.366 19.0215 125.366 23.4316V33.9205H120.799V24.0939C120.799 21.8573 119.916 20.786 117.9 20.786C115.948 20.786 114.467 21.9825 114.467 24.4086V33.9205H109.899L109.902 17.4463Z" fill="black"/>
<path d="M127.841 34.2663H132.376C132.66 35.7152 133.7 36.66 136.03 36.66C138.802 36.66 140.189 35.2111 140.189 32.6288V30.1397C139.275 31.7468 137.322 33.1951 134.896 33.1951C130.896 33.1951 127.714 30.2029 127.714 25.3207V25.1034C127.714 20.3778 130.865 17.0701 134.959 17.0701C137.637 17.0701 139.244 18.2355 140.189 19.9058V17.4462H144.724V32.6288C144.693 37.5092 141.449 40 136.03 40C130.707 39.9974 128.282 37.6683 127.841 34.2663ZM140.314 25.2575V25.037C140.314 22.2332 138.834 20.5318 136.345 20.5318C133.794 20.5318 132.376 22.3595 132.376 25.0682V25.3207C132.376 28.0604 133.983 29.7618 136.251 29.7618C138.645 29.7618 140.314 28.0604 140.314 25.2575Z" fill="black"/>
<path d="M147.263 25.8557V25.6033C147.263 20.4368 151.012 17.0659 155.957 17.0659C160.903 17.0659 164.624 20.3737 164.624 25.5082V25.7607C164.624 30.9585 160.876 34.2654 155.93 34.2654C151.012 34.2663 147.263 30.9939 147.263 25.8557ZM159.99 25.7928V25.5723C159.99 22.4227 158.509 20.5319 155.957 20.5319C153.437 20.5319 151.925 22.3595 151.925 25.5091V25.7615C151.925 28.9111 153.374 30.8011 155.957 30.8011C158.509 30.8011 159.99 28.9111 159.99 25.7928Z" fill="black"/>
<path d="M7.43014e-08 19.3402C0.000166493 20.2827 0.279781 21.2039 0.803489 21.9875C1.3272 22.7708 2.07148 23.3815 2.94222 23.7422C3.81295 24.1026 4.77105 24.197 5.69536 24.013C6.61966 23.8289 7.46865 23.3752 8.135 22.7085C8.80133 22.0421 9.2551 21.1931 9.43889 20.2687C9.62269 19.3444 9.52826 18.3863 9.16758 17.5157C8.80688 16.645 8.19611 15.9008 7.4125 15.3772C6.62888 14.8537 5.70762 14.5742 4.76519 14.5742C4.13934 14.5742 3.51963 14.6975 2.94143 14.937C2.36325 15.1765 1.8379 15.5276 1.3954 15.9702C0.952894 16.4128 0.601912 16.9382 0.362488 17.5164C0.123063 18.0947 -0.00011044 18.7144 7.43014e-08 19.3402Z" fill="black"/>
<path d="M10.228 6.98184C10.2282 7.92429 10.5078 8.84551 11.0315 9.62902C11.5552 10.4125 12.2995 11.0232 13.1702 11.3837C14.041 11.7443 14.9991 11.8385 15.9234 11.6545C16.8477 11.4706 17.6967 11.0167 18.363 10.3502C19.0294 9.68377 19.4831 8.83467 19.6669 7.91035C19.8507 6.98602 19.7563 6.02794 19.3956 5.15725C19.0349 4.28658 18.4241 3.5424 17.6405 3.01884C16.8569 2.49528 15.9356 2.21582 14.9932 2.21582C13.7293 2.21604 12.5173 2.71827 11.6237 3.61206C10.73 4.50583 10.228 5.71797 10.228 6.98184Z" fill="black"/>
<path d="M15.0225 31.6922C15.0225 32.6347 15.3019 33.556 15.8255 34.3398C16.3492 35.1233 17.0934 35.734 17.9641 36.0947C18.8348 36.4553 19.7929 36.5497 20.7173 36.3659C21.6417 36.1821 22.4907 35.7281 23.1571 35.0617C23.8235 34.3953 24.2775 33.5464 24.4613 32.6218C24.6451 31.6975 24.5509 30.7395 24.19 29.8687C23.8294 28.9979 23.2187 28.2537 22.4351 27.7302C21.6514 27.2066 20.7301 26.927 19.7877 26.927C18.5239 26.9272 17.312 27.4295 16.4184 28.323C15.5248 29.2165 15.0227 30.4285 15.0225 31.6922Z" fill="black"/>
<path d="M25.2144 19.2513C25.2144 20.1937 25.4939 21.115 26.0176 21.8986C26.5411 22.6822 27.2853 23.2931 28.1561 23.6538C29.0269 24.0144 29.9848 24.1088 30.9094 23.925C31.8337 23.741 32.6826 23.2872 33.349 22.6208C34.0157 21.9544 34.4694 21.1053 34.6532 20.1809C34.8371 19.2565 34.7429 18.2984 34.3822 17.4277C34.0214 16.557 33.4107 15.8128 32.6271 15.2891C31.8433 14.7655 30.9221 14.4861 29.9796 14.4861C28.7158 14.4863 27.5041 14.9884 26.6104 15.882C25.7168 16.7756 25.2146 17.9875 25.2144 19.2513Z" fill="black"/>
<path d="M0.34668 8.08582C0.34668 8.75152 0.544082 9.40226 0.913927 9.95579C1.28377 10.5093 1.80944 10.9407 2.42448 11.1954C3.03951 11.4502 3.71626 11.5169 4.36917 11.387C5.02208 11.2571 5.62181 10.9365 6.09254 10.4658C6.56325 9.99511 6.88383 9.39538 7.0137 8.74247C7.14358 8.08956 7.07691 7.4128 6.82217 6.79777C6.56741 6.18274 6.13599 5.65706 5.58249 5.28722C5.02899 4.91738 4.37822 4.71997 3.71253 4.71997C2.81985 4.71997 1.96373 5.0746 1.33251 5.7058C0.701294 6.33703 0.34668 7.19314 0.34668 8.08582Z" fill="black"/>
<path d="M27.7227 30.5906C27.7227 31.2564 27.92 31.907 28.2898 32.4607C28.6599 33.0141 29.1855 33.4455 29.8004 33.7002C30.4154 33.955 31.0923 34.0217 31.7452 33.8919C32.3981 33.7618 32.9978 33.4414 33.4686 32.9706C33.9392 32.4998 34.2598 31.9003 34.3897 31.2472C34.5195 30.5943 34.4528 29.9176 34.1982 29.3026C33.9433 28.6875 33.5121 28.1619 32.9585 27.792C32.4051 27.4222 31.7542 27.2249 31.0886 27.2249C30.1958 27.2249 29.3396 27.5794 28.7086 28.2106C28.0774 28.8418 27.7227 29.698 27.7227 30.5906Z" fill="black"/>
<path d="M0.401367 33.0269C0.401367 34.1637 0.738503 35.2751 1.37014 36.2205C2.00178 37.1655 2.89954 37.9023 3.94992 38.3375C5.00027 38.7725 6.15604 38.8863 7.27109 38.6643C8.38612 38.4424 9.41031 37.8949 10.2141 37.091C11.018 36.2871 11.5654 35.2627 11.7871 34.1478C12.0088 33.0326 11.8948 31.8768 11.4596 30.8266C11.0244 29.7764 10.2876 28.8787 9.34221 28.2471C8.39683 27.6156 7.28543 27.2786 6.14854 27.2788C4.62435 27.2795 3.16281 27.8853 2.08512 28.9631C1.00743 30.0411 0.401813 31.5026 0.401367 33.0269Z" fill="black"/>
<path d="M22.9004 5.74803C22.9004 6.88492 23.2376 7.99625 23.8693 8.94154C24.501 9.8868 25.3986 10.6236 26.4491 11.0586C27.4993 11.4936 28.6551 11.6074 29.7702 11.3855C30.8851 11.1637 31.9094 10.6161 32.7133 9.81219C33.5171 9.00822 34.0644 7.98395 34.2861 6.8689C34.5079 5.75382 34.3938 4.59805 33.9587 3.54776C33.5235 2.49748 32.7867 1.59981 31.8414 0.968308C30.8959 0.336808 29.7844 -0.000166369 28.6477 6.16198e-08C27.1234 0.000669183 25.6618 0.606504 24.5842 1.68435C23.5065 2.76218 22.9008 4.22384 22.9004 5.74803Z" fill="black"/>
</svg>
