<svg width="162" height="37" viewBox="0 0 162 37" fill="none" xmlns="http://www.w3.org/2000/svg">
<path d="M10.4401 35.8981C7.9303 35.5127 6.26255 34.6952 4.74438 33.107C4.07554 32.4072 3.75898 31.959 3.32793 31.1014C2.34779 29.1516 1.9307 27.0433 1.93092 24.0398C1.931 22.9286 2.01846 21.124 2.0951 20.6515C2.11469 20.5323 2.15486 20.1998 2.1848 19.9131C2.28338 18.9697 2.58673 17.0713 2.88593 15.5256C3.37294 13.0094 3.45613 12.4087 3.49329 11.1383C3.56558 8.66797 2.96638 7.32843 1.62437 6.96014C0.718947 6.71192 0.722972 6.71528 0.781547 6.22075C0.86913 5.48144 1.36567 4.59086 2.15575 3.75624C3.87399 1.941 6.94135 0.572318 10.3354 0.106315C11.6546 -0.0749474 14.1007 -0.0166969 15.2329 0.222265C19.1216 1.04393 21.9572 3.15809 23.5603 6.43089C24.2726 7.88496 24.4968 8.8354 24.4968 10.3996C24.4968 11.4799 24.4647 11.7804 24.2713 12.5088C23.8919 13.9374 23.1026 15.4274 22.1131 16.583C21.881 16.854 21.6912 17.0886 21.6912 17.1044C21.6913 17.1207 21.9968 17.4484 22.3701 17.8337C23.6158 19.1198 24.4808 20.6647 24.9599 22.4595C25.2692 23.6181 25.342 25.5346 25.1259 26.8272C24.28 31.8861 20.3475 35.2784 14.567 35.9359C13.6192 36.0437 11.2465 36.0222 10.4401 35.8981ZM14.8967 32.5066C18.3443 31.9418 20.7454 30.087 21.587 27.3382C21.9465 26.164 21.9888 24.643 21.6944 23.4752C21.3478 22.1006 20.3638 20.5152 19.3615 19.7168L19.0059 19.4337L18.3893 19.8327C17.4207 20.4593 15.736 21.2322 14.7842 21.4864C13.7038 21.7749 12.1744 21.8146 11.2656 21.5778C9.10357 21.0142 7.93034 19.4921 8.01793 17.3642C8.07383 16.0061 8.73315 14.7528 9.74515 14.0809C11.5854 12.859 14.2649 13.0807 17.748 14.7429L18.8676 15.2775L19.199 14.9019C21.6814 12.0911 21.7899 9.28203 19.5247 6.4681C18.7171 5.46479 17.8587 4.80908 16.5373 4.18598C15.152 3.53273 14.3643 3.40226 11.8738 3.41304C10.0953 3.41848 9.36036 3.52791 8.02137 3.97535C7.167 4.26058 6.35378 4.67282 5.75761 5.12222L5.38632 5.40196L5.72653 5.83254C6.75058 7.12805 7.09104 8.82471 6.89572 11.6596C6.86306 12.1375 6.82038 12.6066 6.80149 12.7021C6.78244 12.7979 6.74255 13.0587 6.71244 13.2827C6.68251 13.5064 6.52372 14.3665 6.35993 15.1941C6.0789 16.614 5.77219 18.3574 5.66736 19.1312C5.64123 19.3223 5.5824 19.7524 5.53608 20.0869C5.31916 21.6533 5.23376 24.7707 5.37425 25.9947C5.53058 27.3565 5.8759 28.577 6.38211 29.5567C6.8326 30.4286 7.88485 31.4628 8.74612 31.88C9.34515 32.1701 10.4131 32.4933 11.0484 32.5765C11.6949 32.6615 14.2348 32.6144 14.8967 32.5066ZM13.5449 18.744C14.2171 18.5997 15.289 18.1533 15.8797 17.7715L16.4289 17.4167L15.8748 17.1652C13.3111 16.0014 11.5528 15.9166 11.0909 16.9343C10.8911 17.3741 10.8736 17.7703 11.0364 18.1604C11.3072 18.8083 12.2364 19.0246 13.5449 18.744ZM103.792 35.9338C102.72 35.8369 102.398 35.7717 101.519 35.474C100.09 34.989 98.8904 34.1828 97.8616 33.0156L97.4643 32.5649L96.9218 33.2207C95.9541 34.3906 94.7161 35.2529 93.579 35.549C92.9205 35.7205 91.7124 35.7189 90.9609 35.5451C89.5455 35.2179 88.4165 34.3611 87.8135 33.1563C87.6256 32.7807 87.4076 32.1693 87.3289 31.7973C86.7203 28.9169 85.3841 26.9702 83.0955 25.629C82.7266 25.4129 82.4015 25.1625 82.3729 25.0724C82.2793 24.7773 82.4137 24.5695 82.7506 24.4875C82.9269 24.4439 83.4142 24.327 83.8335 24.2252C84.9442 23.9563 85.9037 23.5612 86.6369 23.0708C87.7189 22.3471 88.2308 21.546 88.3089 20.4542C88.4157 18.9619 87.6933 17.8915 86.3319 17.5248C85.1082 17.1955 82.9874 17.4677 80.9185 18.2205L80.1559 18.4981L80.1798 25.6348C80.2021 32.2176 80.1918 32.831 80.0479 33.5384C79.7907 34.8018 79.3719 35.5259 78.7659 35.7547C78.4272 35.8826 77.7225 35.809 77.2732 35.5967C76.8138 35.3806 75.9903 34.6007 75.9903 34.3814C75.9903 34.3008 76.0915 34.1403 76.2151 34.0249C76.517 33.7419 76.6639 33.3642 76.8359 32.4279C76.9635 31.7337 76.9776 30.9045 76.957 25.3013C76.9445 21.8137 76.9244 18.9508 76.9124 18.939C76.9004 18.9281 76.7568 18.9552 76.5927 19.0053C76.4286 19.0543 75.9425 19.1163 75.5124 19.1452C74.2267 19.2306 73.1297 18.922 71.1112 17.9084C69.3844 17.0412 67.7151 16.4613 66.6073 16.3436C66.2967 16.3109 65.9919 16.2767 65.9299 16.2685C65.5333 16.2141 64.6321 16.4186 64.1666 16.6669C63.5789 16.9798 63.2381 17.3641 62.8919 18.1033C62.5612 18.8093 62.5617 19.7131 62.8932 20.3558C63.4481 21.4319 64.7115 22.1828 66.9069 22.7413C69.0272 23.2807 70.2381 23.8311 71.4263 24.7953C73.833 26.7484 74.6669 30.0038 73.4137 32.5545C73.1717 33.0471 72.9174 33.3804 72.3722 33.9201C71.7644 34.5219 71.5105 34.7022 70.7582 35.0663C69.5765 35.6382 69.0477 35.7687 67.6644 35.8298C65.9013 35.9076 64.6358 35.6306 62.7723 34.7587C61.9302 34.3646 61.6755 34.2839 61.2519 34.2758C60.5745 34.2649 60.14 34.3956 59.5057 34.8055C59.0042 35.1299 58.8534 35.3351 58.7992 35.7688C58.7818 35.9098 58.2516 35.8646 57.8642 35.6888C57.3916 35.4743 56.819 34.9498 56.6101 34.5402C56.2614 33.8566 56.4343 33.4222 57.3733 32.6226C58.5133 31.6518 59.6751 31.1647 61.0038 31.1004C62.1823 31.0433 62.7221 31.1637 63.9987 31.7662C65.3284 32.394 65.8761 32.5484 66.9985 32.6118C68.3244 32.6863 69.2579 32.3966 70.0545 31.6621C70.6356 31.1265 70.7273 30.8998 70.731 29.9898C70.734 29.2776 70.7087 29.1541 70.4509 28.6306C69.8208 27.3502 68.4598 26.4806 66.1296 25.8699C64.4559 25.4312 63.9636 25.2562 63.0765 24.7843C61.5556 23.9753 60.5028 22.9235 59.8967 21.6075C59.3212 20.3583 59.2497 18.6558 59.7169 17.3278C60.0897 16.268 60.4583 15.6818 61.2644 14.8668C62.2671 13.853 63.2009 13.3723 64.6092 13.1448C66.8038 12.7905 69.0644 13.3316 72.7324 15.0892C74.6525 16.0093 75.2225 16.1068 76.37 15.7115L76.7931 15.5657L76.8181 12.8309C76.8317 11.3267 76.8627 9.9983 76.8871 9.87881C76.9116 9.75906 76.9546 9.39535 76.9833 9.07049C77.2424 6.13735 78.0843 3.62828 79.1843 2.51152C79.8599 1.8255 80.3631 1.59189 81.2485 1.55286C83.4353 1.45652 84.8743 2.46308 85.3264 4.40542C85.4578 4.96968 85.4622 6.88213 85.3335 7.48955C84.9006 9.53385 84.3611 11.1228 83.5044 12.8761C83.1542 13.5928 82.7848 14.3028 82.6834 14.4538L82.4991 14.7283L83.1326 14.5628C84.0711 14.3173 84.5242 14.2655 85.6775 14.2709C86.8214 14.2764 87.5714 14.4485 88.4993 14.9166C90.2258 15.7882 91.3636 17.7556 91.3884 19.9129C91.3993 20.8534 91.2717 21.4483 90.8854 22.2587C90.3759 23.3274 89.4256 24.2809 88.0629 25.0905L87.4582 25.4498L88.0622 26.0395C89.0823 27.0356 89.4727 27.7875 89.9335 29.6434C90.4698 31.8035 91.1211 32.5787 92.4106 32.5917C92.8832 32.5965 93.0461 32.5536 93.4097 32.344C93.9527 32.0272 95.029 30.9557 95.5645 30.1984L95.9705 29.6241L95.7671 29.0256C95.3793 27.8849 95.0638 26.3977 94.9582 25.2124C94.5813 20.9821 95.9508 17.222 98.6507 15.0746C99.9688 14.0263 101.416 13.532 103.314 13.4819C105.023 13.4383 106.157 13.7791 107.354 14.7012C108.848 15.8524 110.044 18.2281 110.044 20.0432C110.044 21.247 109.645 22.2679 108.842 23.1114C108.038 23.9569 107.23 24.4371 104.809 25.5086C104.178 25.7878 103.446 26.1423 103.184 26.2962C102.086 26.9385 100.927 27.9223 100.051 28.9544L99.4343 29.6805L99.7225 30.2267C99.8939 30.5511 100.275 31.038 100.663 31.4267C102.594 33.3616 105.368 33.4972 109.133 31.8405C111.42 30.8341 113.641 29.0813 115.108 27.1238L115.694 26.3418L115.702 25.0387C115.706 24.3219 115.723 23.0512 115.739 22.215C115.756 21.3787 115.791 19.512 115.816 18.0666L115.863 15.4384L115.627 15.4276C114.771 15.3841 113.566 15.4438 113.174 15.5489C113.007 15.5924 112.785 15.7085 112.68 15.8054C112.514 15.9589 112.453 15.968 112.202 15.881C111.152 15.5152 110.677 14.6087 110.958 13.5037C111.197 12.5656 111.735 12.3516 113.826 12.3631C114.638 12.3676 115.433 12.3958 115.592 12.4219L115.881 12.4709L115.86 9.58877C115.848 8.00352 115.868 6.60879 115.906 6.48936C116.201 5.55845 117.179 5.18305 118.762 5.39349C119.36 5.47296 119.428 5.57801 119.202 6.07972C119.05 6.41775 119.041 6.65922 119.07 9.572C119.087 11.2931 119.119 12.7208 119.142 12.7447C119.165 12.7664 120.09 12.7882 121.197 12.7882C123.413 12.7882 123.935 12.7032 124.467 12.2558C124.734 12.031 124.74 12.0305 125.107 12.1704C125.567 12.3462 126.096 12.8756 126.245 13.3106C126.374 13.6851 126.341 14.2881 126.169 14.7C126.005 15.0909 125.523 15.4314 124.835 15.6409C124.306 15.802 124.009 15.8195 121.652 15.8276L119.052 15.8386L119.032 16.3994C119.021 16.708 118.989 17.8205 118.961 18.8717C118.933 19.923 118.881 21.5259 118.846 22.4338C118.747 25.0351 118.784 27.0662 118.947 27.9239C118.963 28.0105 119.001 28.2625 119.031 28.4843C119.129 29.217 119.428 30.2435 119.727 30.8745C120.27 32.021 121.049 32.5725 122.177 32.6106C123.364 32.6487 124.447 32.2029 125.454 31.2549C125.782 30.9457 126.169 30.521 126.314 30.3105L126.577 29.9278L126.388 29.0912C126.041 27.5555 125.959 26.6354 125.986 24.5622C126 23.4871 126.037 22.4902 126.068 22.3469C126.099 22.2037 126.186 21.7735 126.262 21.3912C126.712 19.1288 127.952 16.9924 129.564 15.7004C131.119 14.4539 132.853 13.8937 135.155 13.8942C137.05 13.8945 138.587 14.4499 139.661 15.5223C140.302 16.1623 140.783 16.9069 140.86 17.3775C140.937 17.8543 140.633 18.398 140.082 18.7696C139.574 19.1114 138.615 19.4824 138.425 19.4098C138.357 19.3826 138.205 19.1511 138.087 18.8937C137.651 17.9421 136.431 17.2755 134.851 17.1262C132.975 16.9487 130.925 18.2189 129.928 20.1751C129.095 21.8112 128.892 22.8439 128.938 25.2141C128.971 26.8808 128.986 27.0328 129.209 28.0186C129.974 31.3906 132.46 33.1402 135.845 32.6892C137.408 32.4807 139.009 31.62 140.522 30.173C141.846 28.9073 143.021 27.349 143.847 25.7613L144.217 25.0495L144.154 22.3082C144.12 20.8004 144.08 19.391 144.065 19.1759C144.05 18.9609 144.01 18.0617 143.975 17.1777C143.941 16.2937 143.9 15.4336 143.885 15.2663C143.834 14.6934 143.724 11.3138 143.722 10.2707C143.719 6.7537 144.275 4.41229 145.459 2.96801C146.479 1.72269 148.383 1.38043 149.984 2.15404C150.935 2.61346 151.562 3.49248 151.931 4.88434C152.13 5.63742 152.201 7.53685 152.079 8.83726C151.954 10.1568 151.431 12.4831 150.927 13.9567C150.806 14.3116 150.706 14.6098 150.706 14.6198C150.706 14.6307 150.944 14.542 151.234 14.4249C152.97 13.7238 155.217 13.7743 157.104 14.5567C159.145 15.4032 160.271 16.8016 160.753 19.089C160.872 19.6501 160.91 20.2346 160.912 21.5216C160.915 23.32 160.871 23.9936 160.661 25.3888C160.589 25.8673 160.504 26.4733 160.473 26.7355C160.442 26.9979 160.404 27.2335 160.389 27.2596C160.317 27.3848 160.221 29.1575 160.232 30.1659C160.246 31.4052 160.428 32.4703 160.684 32.8158C160.791 32.96 160.944 33.0405 161.141 33.0563C161.873 33.1145 161.999 33.2963 162 34.2925C162.001 35.2393 161.524 35.7149 160.576 35.7135C158.819 35.7108 157.535 34.3393 157.132 32.0337C156.982 31.1781 157.01 28.1587 157.176 27.2668C157.19 27.1889 157.229 26.8515 157.261 26.5169C157.294 26.1822 157.357 25.6404 157.403 25.3124C157.68 23.3061 157.658 20.9609 157.349 19.7708C156.852 17.8482 155.794 16.9956 153.902 16.9913C150.968 16.9858 148.211 20.0825 147.551 24.1277C147.425 24.8948 147.388 25.2351 147.269 26.734C147.244 27.0449 147.207 27.4747 147.187 27.6897C147.167 27.9047 147.128 28.5108 147.1 29.0364C147.072 29.5623 147.033 30.168 147.013 30.383C146.993 30.598 146.954 31.3605 146.926 32.0772C146.834 34.4097 146.786 34.6299 146.261 35.1353C145.632 35.7393 144.605 35.8911 143.908 35.4826C143.306 35.1299 143.306 35.1282 143.447 34.1535C143.618 32.9665 143.653 32.6412 143.717 31.6426L143.772 30.7737L143.315 31.4212C142.401 32.7158 141.125 33.7981 139.571 34.5977C137.785 35.5161 136.028 35.9481 134.291 35.8959C131.996 35.8268 130.179 35.0739 128.699 33.5779L128.108 32.9799L127.605 33.4458C126.368 34.5907 125.04 35.3802 123.904 35.6452C122.96 35.8657 121.256 35.7824 120.342 35.4721C118.894 34.9801 117.794 34.057 117.06 32.7191C116.783 32.2145 116.429 31.236 116.349 30.7526C116.315 30.5495 116.26 30.3835 116.227 30.3835C116.194 30.3835 115.958 30.6208 115.703 30.9104C114.593 32.1719 112.736 33.5527 111.036 34.3811C109.432 35.1624 107.262 35.7916 105.773 35.907C104.669 35.9925 104.459 35.9953 103.792 35.9338ZM101.252 23.8287C101.743 23.5037 102.818 22.9281 103.642 22.5496C105.998 21.4663 106.471 21.185 106.707 20.7291C107.27 19.6411 106.357 17.6818 104.97 16.9989C104.004 16.5232 102.835 16.5999 101.559 17.2237C99.6884 18.1374 98.453 20.3747 98.1657 23.3683C98.1003 24.0497 98.0938 24.5884 98.1325 26.1432L98.145 26.639L99.2527 25.5294C100.022 24.7589 100.633 24.239 101.252 23.8287ZM146.915 18.3275C147.362 17.4507 148.292 14.0201 148.65 11.9202C149.028 9.71056 149.101 8.96619 149.088 7.48789C149.075 5.91466 148.731 5.10013 148.08 5.10013C147.708 5.10013 147.461 5.27809 147.188 5.7435C146.66 6.64562 146.407 8.52257 146.409 11.5292C146.41 13.3788 146.56 16.7585 146.668 17.3936C146.684 17.4894 146.7 17.7921 146.704 18.0669C146.707 18.3418 146.729 18.5666 146.751 18.5666C146.774 18.5666 146.847 18.4587 146.915 18.3275ZM79.7997 14.3724C80.836 12.8663 82.1935 9.58173 82.596 7.607C82.9398 5.92011 82.7601 4.89693 82.0601 4.5546C81.5004 4.2808 81.1652 4.59271 80.7287 5.80048C80.3106 6.95544 79.8509 9.38764 79.6868 11.3121C79.6585 11.6468 79.6177 12.0961 79.5965 12.3111C79.5224 13.0645 79.4556 14.7437 79.4998 14.7437C79.5243 14.7437 79.6592 14.5766 79.7997 14.3724ZM33.9845 35.7032C32.8207 35.5562 31.4879 34.9446 30.6745 34.1837C29.6253 33.2022 29.0659 32.1541 28.7151 30.5124C28.5998 29.9729 28.5674 27.5466 28.6682 26.9937C28.8447 26.0252 28.9167 20.4925 28.8151 15.6994L28.7721 13.6578L29.5202 13.6595C30.178 13.6611 30.3299 13.6921 30.7799 13.9218C31.3341 14.2043 31.7726 14.7378 31.9422 15.3361C32.0654 15.7705 32.1523 17.4879 32.1518 19.4784C32.1513 21.2083 32.0419 25.4287 31.984 25.9508C31.9655 26.1179 31.929 26.9782 31.903 27.8621C31.8654 29.1315 31.8834 29.5863 31.9884 30.0257C32.2492 31.1187 32.7614 31.8665 33.5121 32.2503C34.5935 32.8032 36.0353 32.6799 37.1434 31.9402C38.0349 31.3448 38.6976 30.4216 39.2923 28.9467L39.6037 28.1746L39.5345 26.9975C39.3857 24.4665 39.4581 22.5786 39.7606 21.0939C40.5271 17.3327 42.5183 14.9665 45.6266 14.1233C46.6173 13.8544 48.457 13.8544 49.4493 14.1226C50.4793 14.4013 51.458 14.9021 52.0582 15.4577L52.577 15.9379V13.6246C52.577 11.5433 52.646 9.7135 52.7433 9.21784C52.7629 9.11768 52.8057 8.82591 52.8383 8.56931C52.8709 8.31293 52.9924 7.77546 53.1084 7.3751C53.4427 6.22177 53.7442 5.73478 54.3415 5.38385C54.6694 5.19116 54.788 5.16893 55.2971 5.20594C55.6915 5.23316 56.0263 5.32296 56.3386 5.48136C56.8563 5.74428 56.9617 5.9053 56.761 6.1269C56.4884 6.42791 56.2546 7.16738 56.1378 8.09704C56.1078 8.33601 56.069 8.61958 56.0516 8.72779C56.0341 8.83557 55.9936 9.28548 55.9615 9.72698C55.9294 10.1684 55.8818 10.6664 55.8559 10.8337C55.8298 11.0008 55.8013 14.715 55.7923 19.0872C55.7831 23.4594 55.7477 27.1931 55.7136 27.3842C55.6793 27.5753 55.5937 28.0733 55.5234 28.4907C54.7413 33.1348 51.926 35.7795 47.8421 35.7065C45.02 35.6575 42.9715 34.7233 41.3727 32.7606L40.9923 32.2937L40.4322 33.0099C39.5482 34.1406 38.6535 34.8912 37.7162 35.2884C36.8401 35.6596 35.1401 35.849 33.9845 35.7032ZM48.9807 32.2915C51.0082 31.9072 52.1646 30.2751 52.5193 27.2978C52.6459 26.2355 52.6256 23.6742 52.484 22.804C52.0959 20.4234 51.0142 18.5157 49.574 17.6719C48.4606 17.0195 46.8014 17.0271 45.4532 17.6936C44.0542 18.3823 42.9449 20.3281 42.6754 22.5657C42.6439 22.8286 42.5992 23.1575 42.5763 23.2969C42.51 23.7008 42.5127 25.7772 42.5803 26.3015C43.0685 30.0928 45.0128 32.3725 47.7649 32.3807C48.1764 32.3821 48.7235 32.3399 48.9807 32.2915ZM29.7709 10.8272C29.0195 10.487 28.6003 9.90698 28.5021 9.07132C28.3253 7.56689 29.7898 6.3521 31.2612 6.78273C32.4353 7.1262 33.062 8.32175 32.7179 9.5612C32.5892 10.0244 31.8314 10.7887 31.3782 10.9122C30.8435 11.0581 30.2064 11.0242 29.7709 10.8272Z" fill="black"/>
</svg>
