<svg width="101" height="50" viewBox="0 0 101 50" fill="none" xmlns="http://www.w3.org/2000/svg">
<path fill-rule="evenodd" clip-rule="evenodd" d="M72.4947 14.8031C72.4947 14.8031 74.5284 13.4196 75.7286 13.4196C76.9454 13.4196 76.7621 13.6363 76.7621 14.8365C76.7621 27.7551 74.4284 33.7894 66.0604 33.7894C62.4265 33.7894 59.026 31.0723 59.026 27.7551C59.026 26.4549 59.2427 23.8712 59.2427 22.5877C59.2427 10.1024 59.0427 7.452 59.0427 3.80144C59.0427 2.03451 60.5096 0.450928 62.2932 0.450928C64.0601 0.450928 65.377 1.86781 65.377 3.63475C65.377 7.30198 64.9769 12.6195 64.8602 26.4049C64.8436 27.5551 65.4103 28.3719 66.9105 28.3719C71.5946 28.3719 72.3114 22.4543 72.4947 14.8031ZM31.5551 27.7551C31.5551 31.6724 35.0557 33.7727 38.3895 33.7727C46.5741 33.7727 49.1078 29.3887 49.1078 14.9031C49.1078 13.703 48.1577 12.7528 46.9408 12.7528C45.724 12.7528 44.5238 13.703 44.5238 14.9031C44.5238 24.4713 43.6403 28.4386 39.3563 28.4386C37.506 28.4386 36.8893 26.6883 36.8893 25.5381C36.8893 23.5545 36.9726 19.8206 37.1893 14.153C37.256 12.4694 36.0725 10.8692 34.3055 10.8692C32.5386 10.8692 31.3884 12.3694 31.3884 14.1364C31.3884 14.1364 31.5551 26.2549 31.5551 27.7551Z" fill="black"/>
<path fill-rule="evenodd" clip-rule="evenodd" d="M87.6647 31.5723C87.6647 31.5723 85.9145 33.8726 81.4471 33.7726C75.5462 33.6226 72.7958 28.9386 72.5124 24.1212C72.2957 20.4706 72.3957 17.8869 72.3957 15.5198C72.3957 13.7529 73.5792 12.3193 75.3462 12.3193C77.1131 12.3193 78.1633 13.7862 78.1633 15.5532C78.1633 17.9202 78.0133 20.0038 77.9966 22.5876C77.9632 25.7047 79.0301 28.4551 81.6305 28.4385C84.1142 28.4385 86.8646 27.3883 86.9313 22.0375C86.9646 19.4538 86.8813 17.9202 86.8813 15.5365C86.8813 13.7696 88.1148 12.3027 89.8817 12.3027C91.6487 12.3027 92.8822 13.7696 92.8822 15.5365C92.8822 17.9035 92.6822 20.2539 92.6822 23.9211C92.6822 23.9211 92.5655 31.3223 92.8322 32.9558C93.649 32.6891 94.8158 31.889 96.066 29.9554C96.8161 28.7885 98.2497 28.5385 99.1332 29.0552C100.35 29.772 100.3 31.1556 99.8499 32.1557C98.6664 34.7728 97.1495 36.373 93.2823 37.6899C93.2989 42.1239 92.9822 48.6582 84.781 49.8418C77.7632 50.8586 74.5794 46.7746 74.5794 43.3241C74.5627 37.8566 80.0302 36.2563 87.9148 34.2727L87.6647 31.5723ZM88.4315 38.64C84.4476 39.5068 79.4468 40.757 79.4968 43.2074C79.5468 45.5078 81.9305 45.9245 83.9142 45.5244C88.0315 44.6743 88.5149 42.2073 88.4315 38.64ZM33.4898 11.9693C32.3229 11.9693 32.2396 12.2193 31.4561 13.4362C31.4561 18.787 30.906 24.6212 24.0216 27.7884C28.639 19.4038 24.1383 10.6524 17.0706 10.6524C13.67 10.6524 11.6364 11.8693 10.2529 12.9861C10.2529 10.4024 10.3362 5.80167 10.3362 5.80167C10.3362 2.60118 9.21937 0.0507881 5.3021 0.000780418C3.03508 -0.032558 1.35149 1.00093 0.301332 3.3513C-0.0820599 4.23476 0.0679619 5.18491 0.801408 5.61831C1.41817 5.96836 2.43499 5.71832 2.93507 5.03489C3.26845 4.61816 3.45182 4.53481 3.75186 4.55148C4.23527 4.60149 4.25194 5.36827 4.26861 5.86835C4.28528 6.25174 4.652 10.7691 4.45197 24.9046C4.45197 28.8052 7.51911 33.806 14.8536 33.806C28.289 33.806 36.3569 27.455 36.3569 13.5862C36.3902 12.4194 34.6566 11.9693 33.4898 11.9693ZM14.8869 28.3385C12.1531 28.3885 10.4029 27.305 10.2862 24.9213C10.2362 24.0211 10.2529 23.2543 10.3029 22.6876C10.5696 19.2037 12.7699 16.9534 15.1703 16.47C18.1707 15.8699 20.171 17.2368 20.171 21.154C20.171 23.8044 19.4376 28.2718 14.8869 28.3385ZM52.1926 33.756C60.6273 33.756 63.6277 26.4382 63.6277 14.5864C63.6277 13.3862 62.6776 12.436 61.4607 12.436C60.2439 12.436 59.2937 13.3862 59.2937 14.5864C59.2937 23.6377 57.9268 28.4385 53.1594 28.4385C51.0758 28.4385 50.2257 27.0216 50.2257 25.7714C50.2257 22.3209 50.3257 18.0202 50.4424 14.453C50.4424 14.453 52.9261 14.4697 54.0429 14.4697C55.2598 14.4697 56.1766 13.6195 56.1766 12.4194C56.1766 11.2192 55.4765 10.2524 53.7429 10.269C51.8759 10.2857 50.6257 10.2857 50.4757 10.2857C50.4757 8.25205 50.5924 6.40176 50.5924 5.06822C50.5924 3.30129 49.1922 1.8344 47.4086 1.8344C45.6416 1.8344 44.2581 3.30129 44.2581 5.06822C44.2581 6.61846 44.2581 10.369 44.2581 10.369C42.8579 10.369 41.9911 11.3692 41.9911 12.436C41.9911 13.5195 42.7912 14.3697 44.4414 14.3697C44.4414 14.3697 44.3748 25.5714 44.3748 27.0716C44.4081 30.7888 47.1752 33.756 52.1926 33.756ZM34.2899 1.85107C32.5063 1.85107 31.056 3.28462 31.056 5.06822C31.056 6.85183 32.5063 8.28538 34.2899 8.28538C36.0735 8.28538 37.5237 6.85183 37.5237 5.06822C37.5237 3.30129 36.0902 1.85107 34.2899 1.85107Z" fill="black"/>
</svg>
