<svg width="144" height="43" viewBox="0 0 144 43" fill="none" xmlns="http://www.w3.org/2000/svg">
<path d="M82.1444 19.9373C78.6093 19.403 77.2202 18.6105 77.3538 17.1858C77.5942 14.7192 80.5594 14.4343 82.4383 14.5767C86.0624 14.8439 86.8282 18.005 86.8638 18.3612L90.4256 18.0228C90.2208 15.761 88.4043 11.38 83.026 10.9704C80.0875 10.7478 77.5319 11.4067 75.8222 12.8225C74.5132 13.9 73.4358 15.5384 73.3111 17.2392C72.9104 22.6442 78.2442 23.4367 81.5656 23.9265C85.7775 24.5587 86.7659 25.0663 86.659 26.7225C86.6145 27.5061 86.2049 28.2719 85.5905 28.7795C84.6911 29.5096 82.9102 29.7233 81.2005 29.5452C77.2202 29.1267 76.8729 26.5889 76.8462 26.1081L73.3022 26.1704C73.3378 28.3164 74.7537 32.5105 80.782 33.1961C84.0233 33.5612 86.6768 32.6173 88.0303 31.6378C89.6064 30.498 90.4613 28.45 90.5681 26.6602C90.8976 21.0948 85.5281 20.4537 82.1444 19.9373Z" fill="black"/>
<path d="M102.482 29.5363C107.789 29.5363 107.389 23.508 107.389 23.508V11.5225H111.52V23.4991C111.52 23.4991 111.529 23.6326 111.529 23.8819C111.511 25.6718 111.333 33.1872 102.625 33.1872H102.349C93.64 33.1872 93.453 25.6718 93.4441 23.8819C93.4441 23.6415 93.453 23.4991 93.453 23.4991V11.5225H97.5847V23.4991C97.5669 23.4991 97.1751 29.5363 102.482 29.5363Z" fill="black"/>
<path d="M139.392 26.1795C138.216 28.2631 135.856 29.4474 133.31 29.4474C129.73 29.4474 126.961 27.2213 126.462 23.6862H143.657C143.701 23.2321 143.701 22.5553 143.701 22.0567C143.701 15.3427 139.213 11.0774 133.176 11.0774C127.139 11.0774 122.339 15.3427 122.339 22.0567C122.339 28.7707 127.148 33.1695 133.176 33.1695C136.907 33.1695 140.442 31.5756 142.41 28.4679L139.392 26.1795ZM133.176 14.7906C136.578 14.7906 139.115 16.9188 139.614 20.4628H126.462C126.961 16.9188 129.686 14.7906 133.176 14.7906Z" fill="black"/>
<path d="M60.6577 11.0684C57.7103 11.0684 54.6739 12.4308 53.2669 14.835V11.5225H49.1353V43H53.2669V29.5275C54.6739 31.9762 57.7103 33.1605 60.6577 33.1605C66.4635 33.1605 71.2719 28.8952 71.2719 22.1812C71.2719 15.4672 66.4635 11.0684 60.6577 11.0684ZM60.2481 29.3672C56.8466 29.3672 53.1334 26.9362 53.1334 22.4038C53.1334 17.9159 56.6774 14.9596 60.3995 14.9596C64.2106 14.9596 67.2827 17.8358 67.2827 22.0476C67.2827 26.2684 64.0592 29.3672 60.2481 29.3672Z" fill="black"/>
<path d="M119.214 0H115.082V32.7063H119.214V0Z" fill="black"/>
<path d="M37.1052 14.4164C37.2032 14.4164 37.31 14.4075 37.4169 14.4075C37.31 14.4075 37.2032 14.4075 37.1052 14.4164Z" fill="black"/>
<path d="M37.1136 10.9254C37.1054 10.9171 37.1054 10.9171 37.1136 10.9254C37.1054 10.9254 37.1054 10.9254 37.1136 10.9254Z" fill="black"/>
<path d="M37.4079 10.908C37.3099 10.908 37.212 10.9169 37.1051 10.9169H37.0962V10.908C37.0962 10.908 33.57 10.9169 30.1774 12.2971L30.5692 13.3389L31.3973 15.5561C32.5905 15.0575 34.5584 14.452 37.0962 14.4074C37.2031 14.4074 37.301 14.3985 37.4079 14.3985C41.9225 14.3985 42.0026 18.557 42.0026 18.5659V19.6433L34.879 19.5899C34.4159 19.5899 31.5309 19.581 29.5184 21.5133C29.0376 21.9763 28.6547 22.5195 28.3609 23.1161C27.9423 23.9798 27.7197 24.9682 27.7197 26.0546C27.7197 27.4526 28.067 28.717 28.7259 29.8034C29.0287 30.2931 29.3849 30.7562 29.8123 31.1569C31.1836 32.4569 33.1604 33.1782 35.2797 33.1782C35.4578 33.1782 35.6269 33.1693 35.805 33.1604C38.2449 33.0268 40.5066 32.0651 41.9759 29.6965V32.6884H45.6445V19.3049C45.6713 15.8589 43.5075 10.908 37.4079 10.908ZM35.6269 29.8657C34.3091 29.9369 31.4062 29.2513 31.4062 26.0635C31.4062 25.2264 32.1987 23.0894 34.781 23.0894C37.3722 23.0894 41.869 23.1072 41.869 23.1072C41.869 27.0341 39.5895 29.652 35.6269 29.8657Z" fill="black"/>
<path d="M15.8323 29.0823C9.29633 29.0823 4.22075 23.7752 4.22075 17.1502C4.22075 10.5252 9.30523 5.17361 15.8323 5.17361C18.9577 5.17361 21.7092 6.44695 23.784 8.40595L26.2773 5.04894C23.5792 2.58239 19.9372 1.08643 15.8323 1.08643C6.99006 1.08643 0 8.25457 0 17.1413C0 25.9835 6.99006 33.1516 15.8323 33.1516C19.4297 33.1516 22.6798 32.003 25.2533 30.0618L23.8909 26.2061C21.7003 27.9247 18.6372 29.0823 15.8323 29.0823Z" fill="black"/>
</svg>
