<svg width="202" height="36" viewBox="0 0 202 36" fill="none" xmlns="http://www.w3.org/2000/svg">
<path fill-rule="evenodd" clip-rule="evenodd" d="M140.81 27.6286C139.574 27.6286 138.371 27.1607 137.502 26.2918C136.633 25.423 136.031 24.0862 136.031 22.3151C136.031 20.5105 136.633 19.1737 137.502 18.3048C138.371 17.436 139.574 16.9681 140.81 17.0015C142.047 17.0015 143.25 17.436 144.119 18.3048C144.987 19.1737 145.589 20.5105 145.589 22.3151C145.589 24.1196 145.021 25.4564 144.119 26.3253C143.25 27.1607 142.047 27.6286 140.81 27.6286ZM140.81 11.1867C134.494 11.1867 129.682 15.8319 129.682 22.3151C129.682 28.7314 134.461 33.4434 140.81 33.4434C147.126 33.4434 151.939 28.7314 151.939 22.3151C151.939 15.8319 147.16 11.1867 140.81 11.1867ZM88.2095 27.7623C86.9731 27.7957 85.77 27.2944 84.9011 26.4255C84.0322 25.5566 83.4307 24.2199 83.4307 22.4487C83.4307 20.6441 84.0322 19.3074 84.9011 18.4385C85.77 17.5696 86.9731 17.1018 88.2095 17.1352C89.446 17.1352 90.6491 17.5696 91.518 18.4385C92.3868 19.3074 92.9884 20.6441 92.9884 22.4487C92.9884 24.2533 92.3868 25.5901 91.518 26.4589C90.6491 27.3278 89.446 27.7957 88.2095 27.7623ZM88.2095 11.3204C81.8935 11.3204 77.0812 15.9655 77.0812 22.4487C77.0812 28.8651 81.86 33.5771 88.2095 33.5771C94.5256 33.5771 99.3379 28.8651 99.3379 22.4487C99.3379 15.999 94.559 11.3204 88.2095 11.3204ZM169.216 33.3431H175.532V20.8112C175.532 19.7752 175.866 18.8729 176.434 18.238C177.069 17.5362 177.972 17.1686 178.941 17.202C180.077 17.202 180.846 17.603 181.347 18.1712C181.848 18.7727 182.115 19.6082 182.115 20.6441V33.3431H188.398V20.8112C188.398 19.8087 188.732 18.9064 189.3 18.238C189.935 17.5362 190.804 17.1686 191.74 17.202C192.91 17.202 193.678 17.603 194.179 18.1712C194.681 18.7727 194.948 19.6082 194.948 20.6441V33.3431H201.097V19.5079C201.097 16.7007 200.161 14.6288 198.691 13.2921C197.221 11.9553 195.282 11.3538 193.344 11.3538C191.94 11.3538 190.671 11.5877 189.534 12.1558C188.565 12.6571 187.696 13.3589 186.961 14.3615C185.758 12.3898 183.519 11.3204 180.912 11.3204C178.974 11.3204 176.768 12.089 175.365 13.5594V11.8216H169.316V33.3431H169.216ZM166.843 11.8885V18.3048L166.342 18.2046C165.74 18.1043 165.239 18.0375 164.771 18.0375C163.434 18.0375 162.231 18.3717 161.396 19.1737C160.56 19.9757 159.959 21.2791 159.959 23.4179V33.3431H153.676V11.8551H159.792V13.927C161.296 12.089 163.668 11.7548 165.139 11.7548C165.607 11.7548 166.041 11.7882 166.442 11.8551L166.843 11.8885ZM53.3541 22.9834H59.5031L59.5699 23.0502C59.6033 23.0837 59.6368 23.1505 59.6368 23.2173C59.7036 24.387 60.2049 25.4898 61.0738 26.2584C61.8758 26.9268 62.9118 27.261 63.9477 27.2276C65.1174 27.261 66.2536 26.7931 67.0222 25.9242C67.7909 25.0219 68.1585 23.8523 68.1251 22.6492V4.70352H74.8422V22.8832C74.8422 28.698 70.3975 33.5771 64.048 33.5771C60.8732 33.5771 58.1998 32.5077 56.3283 30.7031C54.4903 28.9319 53.4209 26.3587 53.3541 23.2508V22.9834ZM128.813 7.61093L129.147 7.71118V2.83209L128.98 2.76526C128.612 2.63158 128.245 2.53132 127.877 2.46448C127.409 2.39765 126.875 2.33081 126.307 2.33081C124.134 2.33081 121.695 3.06602 120.425 4.33592C119.155 5.63924 118.453 7.47725 118.453 9.68287V10.7188H115.278V16.2997H118.453V33.3097H124.803V16.2997H129.08V10.7188H124.803V9.78313C124.803 8.78058 125.137 8.21246 125.605 7.87828C126.073 7.54409 126.641 7.41042 127.209 7.41042C128.078 7.44384 128.546 7.5441 128.813 7.61093ZM113.039 28.3304L113.374 28.2301V33.1092L113.207 33.176C112.973 33.2763 112.605 33.3766 112.171 33.4768C111.736 33.5436 111.235 33.6105 110.7 33.6105C108.662 33.6105 106.389 32.8753 105.186 31.6054C103.983 30.3021 103.348 28.464 103.348 26.2584V16.4H100.374V10.8191H103.348V4.80377H109.33V10.8525H113.374V16.4334H109.33V26.225C109.33 27.2276 109.664 27.7957 110.065 28.1299C110.5 28.464 111.068 28.5977 111.569 28.5977C112.371 28.4975 112.806 28.3972 113.039 28.3304ZM9.50909 34.212C10.1775 34.8804 9.70961 35.9832 8.74047 35.9832H2.69173C1.52208 35.9832 0.55295 35.0475 0.519531 33.8778V28.0296C0.519531 27.0939 1.68918 26.626 2.35755 27.2944L9.50909 34.212Z" fill="black"/>
<path d="M18.9671 34.6467C18.0982 33.8112 17.6304 32.6416 17.6304 31.4385C17.6304 30.2354 18.0982 29.0658 18.9671 28.2303L25.4169 21.814C27.2215 20.0428 30.0955 20.0428 31.9 21.814C32.7689 22.6494 33.2368 23.8191 33.2368 25.0221C33.2368 26.2252 32.7689 27.3949 31.9 28.2303L25.4503 34.6467C23.6457 36.4513 20.7383 36.4513 18.9671 34.6467Z" fill="black"/>
<path d="M1.88923 18.5389C1.02035 17.67 0.55249 16.5338 0.55249 15.3307C0.55249 14.1276 1.02035 12.958 1.88923 12.1226L12.7502 1.32838C14.5548 -0.442795 17.4288 -0.442795 19.2334 1.32838C20.1023 2.16385 20.5701 3.33349 20.5701 4.53656C20.5701 5.73962 20.1023 6.90927 19.2334 7.74473L8.37241 18.5389C6.56781 20.3101 3.69382 20.3101 1.88923 18.5389Z" fill="black"/>
<path d="M10.7799 26.2251C9.91097 25.3896 9.44312 24.22 9.44312 23.0169C9.44312 21.8138 9.91097 20.6442 10.7799 19.8087L25.4506 5.2383C27.2551 3.46712 30.1291 3.46712 31.9337 5.2383C32.8026 6.07376 33.2705 7.2434 33.2705 8.44647C33.2705 9.64953 32.8026 10.8192 31.9337 11.6546L17.263 26.2585C15.4584 28.0297 12.5844 28.0297 10.7799 26.2251Z" fill="black"/>
</svg>
