<svg width="180" height="42" viewBox="0 0 180 42" fill="none" xmlns="http://www.w3.org/2000/svg">
<path fill-rule="evenodd" clip-rule="evenodd" d="M5.51574 26.7407C6.45174 23.9231 7.81435 20.8191 9.54838 17.68C11.2824 14.5409 13.2022 11.7615 15.0858 9.50855C16.9642 11.7583 18.8723 14.5387 20.6148 17.68C22.3573 20.8212 23.7199 23.9253 24.6559 26.7449C21.8395 27.3116 18.5709 27.6364 15.0816 27.6364C11.5923 27.6364 8.32161 27.3074 5.50513 26.7386L5.51574 26.7407ZM34.7843 15.6891C33.5172 14.6491 31.7969 13.7471 29.6734 13.0106C27.7738 12.3505 25.5877 11.8348 23.2212 11.4761L25.2672 14.9091L25.5612 15.4429C30.7718 16.6294 34.2154 18.6743 34.2154 20.9995C34.2154 22.9521 31.7895 24.7053 27.9288 25.9204C26.8962 22.7346 25.3924 19.3111 23.5215 15.9449C21.1051 11.597 18.3533 7.79468 15.5623 4.95485C12.3352 1.66612 9.37328 0 6.76055 0C5.70464 0 4.72937 0.265306 3.86023 0.785305C2.7173 1.47722 1.23158 2.93322 0.820891 5.93648C0.587422 7.59835 0.695667 9.59345 1.1435 11.8857C1.54252 13.9232 2.20473 16.1465 3.08872 18.4525C3.65648 17.264 4.27199 16.0733 4.93313 14.8847L5.22709 14.3615C3.61084 9.07345 3.59493 4.95591 5.53166 3.79387C5.89247 3.57738 6.30423 3.47338 6.75949 3.47338C8.35557 3.47232 10.4823 4.76595 12.7692 6.99133C10.6255 9.51704 8.54235 12.5628 6.66398 15.9427C3.93452 20.8551 1.97444 25.8906 1.1435 30.1249C0.695667 32.4044 0.587422 34.4016 0.820891 36.0635C1.2422 39.0668 2.70668 40.5228 3.86023 41.2147C4.73043 41.7347 5.70464 42 6.75949 42C9.37328 42 12.3352 40.3339 15.5623 37.0462C16.781 35.7941 17.9198 34.4668 18.972 33.0719C17.7028 33.1547 16.4081 33.1961 15.0922 33.1961C14.8923 33.1958 14.6925 33.1947 14.4926 33.1929C11.5658 36.5294 8.75141 38.5245 6.75843 38.5245C6.30211 38.5245 5.89141 38.4205 5.5306 38.204C3.90374 37.2277 3.65542 34.1671 4.57231 30.0857C7.75598 30.75 11.3482 31.1108 15.0912 31.1108C20.5501 31.1108 25.7278 30.3573 29.6723 28.9884C31.7948 28.2508 33.5161 27.3488 34.7832 26.3088C37.0754 24.4272 37.5562 22.3822 37.5562 20.9984C37.5562 19.6146 37.0754 17.5707 34.7832 15.6881L34.7843 15.6891Z" fill="black"/>
<path fill-rule="evenodd" clip-rule="evenodd" d="M145.999 11.8857C145.999 10.9837 146.735 10.2854 147.657 10.2854C148.579 10.2854 149.312 10.9837 149.312 11.8857C149.312 12.7644 148.576 13.4404 147.657 13.4404C146.738 13.4404 145.999 12.7644 145.999 11.8857ZM59.6125 12.5394C58.4844 11.5695 56.9881 11.0749 55.1235 11.0749H49.2295V26.3969H51.9919V21.9132H54.7319C56.7111 21.9132 58.2998 21.4176 59.5074 20.4031C60.7278 19.3896 61.3253 18.0366 61.3253 16.3704C61.3253 14.7701 60.7501 13.5083 59.622 12.5394H59.6125ZM55.0312 19.4342H51.9919V13.5763H55.0312C57.1483 13.5763 58.5757 14.6799 58.5757 16.3704C58.5757 18.1958 57.1483 19.4342 55.0312 19.4342ZM67.352 15.4918C68.6414 15.4918 69.7461 15.8292 70.6895 16.4829V15.7401H73.3362V26.3979H70.6895V25.6551C69.7344 26.3077 68.6414 26.6463 67.352 26.6463C65.8323 26.6463 64.544 26.1157 63.4615 25.0226C62.4024 23.9401 61.8729 22.6348 61.8729 21.0791C61.8729 19.5233 62.4035 18.217 63.4615 17.1367C64.544 16.033 65.8323 15.4918 67.352 15.4918ZM67.7446 24.3922C69.0107 24.3922 70.0008 23.8966 70.6906 22.8821V19.2549C70.0008 18.2414 69.0107 17.7447 67.7446 17.7447C67.3125 17.7374 66.8838 17.822 66.4869 17.9931C66.0901 18.1642 65.7342 18.4177 65.4428 18.737C64.822 19.3907 64.5228 20.1802 64.5228 21.0802C64.5228 21.9801 64.822 22.7707 65.4428 23.4255C66.0637 24.0802 66.8224 24.3944 67.7457 24.3944L67.7446 24.3922ZM152.301 17.091C153.404 16.0319 154.787 15.4907 156.445 15.4907C158.102 15.4907 159.483 16.0319 160.564 17.091C161.67 18.1501 162.222 19.4788 162.222 21.0791C162.222 22.7028 161.67 24.0537 160.564 25.1351C159.461 26.1942 158.079 26.7354 156.445 26.7354C154.787 26.7354 153.405 26.2048 152.301 25.1351C151.197 24.0526 150.643 22.7017 150.643 21.0791C150.643 19.4798 151.195 18.1501 152.301 17.091ZM156.445 24.3689C157.365 24.3689 158.125 24.0537 158.7 23.4223C159.275 22.7908 159.575 22.0024 159.575 21.0791C159.575 19.2538 158.286 17.8572 156.445 17.8572C154.58 17.8572 153.291 19.2549 153.291 21.0791C153.291 22.0024 153.59 22.7919 154.165 23.4223C154.764 24.0537 155.524 24.3689 156.445 24.3689ZM117.795 15.4016C116.566 15.3946 115.374 15.8262 114.434 16.6188V15.738H111.764V26.3958H114.434V19.2984C115.285 18.2838 116.23 17.766 117.242 17.766C118.9 17.766 119.912 18.8028 119.912 20.6737V26.3969H122.56V20.5177C122.56 18.962 122.123 17.7235 121.247 16.7992C120.372 15.8749 119.22 15.4026 117.795 15.4026V15.4016ZM104.063 24.3689C105.099 24.3689 106.042 23.851 106.894 22.7908V15.738H109.542V26.3958H106.894V25.4938C105.955 26.3056 104.751 26.7463 103.51 26.7333C102.084 26.7333 100.931 26.26 100.058 25.3357C99.1844 24.4113 98.7451 23.1729 98.7451 21.6182V15.738H101.392V21.4622C101.392 23.2875 102.405 24.3699 104.063 24.3699V24.3689ZM142.755 24.3243C141.373 24.3243 140.684 23.6483 140.684 22.2974V17.9347H144.712V15.7486H140.684V11.8507H138.036V15.7486H135.549V17.9347H138.036V22.3069C138.036 25.0343 139.649 26.746 142.249 26.746C143.055 26.746 143.952 26.5868 144.966 26.295L144.024 24.1895C143.515 24.302 143.148 24.3349 142.756 24.3349L142.755 24.3243ZM132.385 19.7271C132.132 18.5778 131.119 17.8562 129.76 17.8562C127.919 17.8562 126.63 19.2538 126.63 21.078C126.63 22.9023 127.919 24.2999 129.76 24.2999C131.119 24.2999 132.132 23.557 132.385 22.4067H135.101C134.942 23.6462 134.342 24.6819 133.35 25.4715C132.359 26.261 131.164 26.6431 129.759 26.6431C128.125 26.6431 126.745 26.1125 125.64 25.0428C124.534 23.973 123.982 22.655 123.982 21.077C123.982 19.4777 124.534 18.148 125.64 17.0889C126.745 16.0298 128.125 15.4886 129.759 15.4886C131.141 15.4886 132.338 15.894 133.328 16.6824C134.341 17.472 134.941 18.4865 135.1 19.7239H132.384L132.385 19.7271ZM146.346 15.739H148.993V26.3969H146.346V15.738V15.739ZM169.916 15.4016C168.674 15.4016 167.545 15.8069 166.555 16.6188V15.738H163.884V26.3958H166.555V19.2984C167.407 18.2838 168.351 17.766 169.364 17.766C171.02 17.766 172.034 18.8028 172.034 20.6737V26.3969H174.682V20.5177C174.682 18.962 174.244 17.7235 173.369 16.7992C172.495 15.8749 171.342 15.4026 169.916 15.4026V15.4016ZM86.8509 23.1612C89.3129 24.4028 93.6745 24.3604 93.6745 20.2832V11.0749H96.4603V20.696C96.4603 27.2894 89.5782 27.5494 85.7462 25.654L86.8498 23.1601L86.8509 23.1612ZM84.7497 15.7167L81.2052 23.6939L77.2925 15.7167H74.4272L79.8373 26.7577L77.6267 31.7136H80.4358L87.5492 15.7157H84.7401L84.7497 15.7167ZM179.036 15.8887C178.722 15.5915 178.339 15.4355 177.89 15.4355C177.461 15.4281 177.046 15.591 176.736 15.8887C176.421 16.1837 176.259 16.5519 176.259 16.9923C176.259 17.4327 176.42 17.7989 176.736 18.096C177.058 18.391 177.441 18.5417 177.89 18.5417C178.339 18.5417 178.722 18.39 179.036 18.096C179.192 17.9582 179.316 17.7883 179.399 17.5979C179.482 17.4075 179.523 17.2012 179.519 16.9934C179.519 16.554 179.36 16.1911 179.036 15.8887ZM178.803 17.8944C178.681 18.0129 178.537 18.1063 178.378 18.1691C178.22 18.2319 178.052 18.263 177.882 18.2605C177.529 18.2605 177.217 18.1384 176.96 17.8944C176.837 17.779 176.739 17.6393 176.672 17.484C176.605 17.3287 176.572 17.1613 176.573 16.9923C176.571 16.8223 176.604 16.6536 176.671 16.4972C176.737 16.3408 176.836 16.2 176.96 16.0839C177.081 15.9633 177.225 15.8681 177.383 15.8041C177.541 15.7401 177.711 15.7086 177.882 15.7114C178.052 15.7086 178.222 15.7401 178.38 15.8041C178.538 15.8681 178.682 15.9633 178.803 16.0839C179.066 16.3354 179.198 16.6326 179.198 16.9923C179.2 17.1621 179.166 17.3304 179.097 17.4859C179.029 17.6414 178.929 17.7806 178.803 17.8944ZM178.554 16.7207C178.554 16.4235 178.304 16.2134 177.971 16.2134H177.334V17.6991H177.603V17.2184H177.874L178.256 17.6991H178.603L178.193 17.1844C178.438 17.1101 178.554 16.9531 178.554 16.7228V16.7207ZM177.605 16.9722H177.965C178.152 16.9722 178.27 16.8703 178.27 16.7143C178.27 16.5721 178.153 16.4638 177.965 16.4638H177.605V16.9732V16.9722Z" fill="black"/>
</svg>
