<svg width="14" height="14" viewBox="0 0 14 14" fill="none" xmlns="http://www.w3.org/2000/svg">
<path fill-rule="evenodd" clip-rule="evenodd" d="M7.6225 1.49875C7.6225 1.2233 7.3992 1 7.12375 1C6.8483 1 6.625 1.2233 6.625 1.49875V6.0025L1.49875 6.0025C1.2233 6.0025 1 6.2258 1 6.50125C1 6.7767 1.2233 7 1.49875 7L6.625 7L6.625 12.5013C6.625 12.7767 6.8483 13 7.12375 13C7.3992 13 7.6225 12.7767 7.6225 12.5013L7.6225 7L12.5013 7C12.7767 7 13 6.7767 13 6.50125C13 6.2258 12.7767 6.0025 12.5013 6.0025L7.6225 6.0025V1.49875Z" fill="#ED462F"/>
<path d="M6.625 6.0025V6.1025H6.725V6.0025H6.625ZM1.49875 6.0025V6.1025V6.0025ZM1.49875 7V7.1V7ZM6.625 7H6.725V6.9H6.625V7ZM6.625 12.5013H6.525H6.625ZM7.6225 12.5013H7.5225H7.6225ZM7.6225 7V6.9H7.5225V7H7.6225ZM12.5013 7V6.9V7ZM12.5013 6.0025V5.9025V6.0025ZM7.6225 6.0025H7.5225V6.1025H7.6225V6.0025ZM7.12375 1.1C7.34397 1.1 7.5225 1.27853 7.5225 1.49875H7.7225C7.7225 1.16807 7.45443 0.9 7.12375 0.9V1.1ZM6.725 1.49875C6.725 1.27853 6.90353 1.1 7.12375 1.1V0.9C6.79307 0.9 6.525 1.16807 6.525 1.49875H6.725ZM6.725 6.0025V1.49875H6.525V6.0025H6.725ZM1.49875 6.1025L6.625 6.1025V5.9025L1.49875 5.9025V6.1025ZM1.1 6.50125C1.1 6.28103 1.27853 6.1025 1.49875 6.1025V5.9025C1.16807 5.9025 0.9 6.17057 0.9 6.50125H1.1ZM1.49875 6.9C1.27853 6.9 1.1 6.72147 1.1 6.50125H0.9C0.9 6.83193 1.16807 7.1 1.49875 7.1V6.9ZM6.625 6.9L1.49875 6.9V7.1L6.625 7.1V6.9ZM6.725 12.5013L6.725 7H6.525L6.525 12.5013H6.725ZM7.12375 12.9C6.90353 12.9 6.725 12.7215 6.725 12.5013H6.525C6.525 12.8319 6.79307 13.1 7.12375 13.1V12.9ZM7.5225 12.5013C7.5225 12.7215 7.34397 12.9 7.12375 12.9V13.1C7.45443 13.1 7.7225 12.8319 7.7225 12.5013H7.5225ZM7.5225 7L7.5225 12.5013H7.7225L7.7225 7H7.5225ZM12.5013 6.9L7.6225 6.9V7.1L12.5013 7.1V6.9ZM12.9 6.50125C12.9 6.72147 12.7215 6.9 12.5013 6.9V7.1C12.8319 7.1 13.1 6.83193 13.1 6.50125H12.9ZM12.5013 6.1025C12.7215 6.1025 12.9 6.28103 12.9 6.50125H13.1C13.1 6.17057 12.8319 5.9025 12.5013 5.9025V6.1025ZM7.6225 6.1025L12.5013 6.1025V5.9025L7.6225 5.9025V6.1025ZM7.5225 1.49875V6.0025H7.7225V1.49875H7.5225Z" fill="#ED462F"/>
</svg>
