<svg width="145" height="40" viewBox="0 0 145 40" fill="none" xmlns="http://www.w3.org/2000/svg">
<path d="M61.4277 19.5023L59.0288 18.9861C57.8101 18.7273 57.146 17.9907 57.146 16.8815C57.146 15.4794 58.3647 14.4457 60.0256 14.4457C62.2766 14.4457 62.9407 16.1065 63.1255 16.6242C63.1625 16.809 63.3104 16.9199 63.4583 17.0308C63.6062 17.1048 63.791 17.1048 63.9375 17.0678L65.2173 16.6242C65.55 16.5132 65.6965 16.1805 65.624 15.8492C65.2912 14.7045 64.0598 12.0098 60.0128 12.0098C56.9839 12.0098 54.4385 14.3347 54.4385 17.0664C54.4385 19.4269 56.0027 21.1618 58.5723 21.7163L60.8475 22.2325C62.2496 22.5283 63.063 23.3772 63.063 24.4835C63.063 25.9226 61.8827 26.8085 59.9986 26.8085C57.7831 26.8085 56.6768 25.3325 56.418 23.9645C56.381 23.7797 56.2701 23.6318 56.1222 23.5209C55.963 23.44 55.7815 23.414 55.606 23.4469L54.2039 23.8906C53.9081 24.0015 53.7247 24.2973 53.7602 24.5916C54.2039 26.8426 56.0354 29.28 59.9986 29.28C63.3204 29.28 65.8288 27.1015 65.8288 24.2233C65.7918 21.8628 64.2048 20.128 61.3992 19.498L61.4277 19.5023ZM73.017 17.1773C70.3223 17.1773 67.5167 19.4283 67.5167 23.2308C67.5167 25.0395 68.1068 26.6265 69.2515 27.7342C70.2853 28.768 71.7258 29.3582 73.2758 29.3582C75.6007 29.3582 77.4465 28.1395 78.2954 26.1103C78.3322 26.0292 78.3511 25.9412 78.3511 25.8522C78.3511 25.7632 78.3322 25.6752 78.2954 25.5941C78.2215 25.4462 78.0736 25.2984 77.9257 25.2614L76.781 24.8547C76.4483 24.7438 76.1169 24.8917 76.006 25.1874C75.5268 26.3321 74.6039 26.9223 73.2758 26.9223C71.6888 26.9223 70.4702 25.8515 70.2469 24.2631C70.2469 24.2262 70.2469 24.1892 70.2839 24.1522C70.2839 24.1522 70.3209 24.1153 70.3948 24.1153H77.8887C78.2215 24.1153 78.5144 23.8564 78.5144 23.5251V23.1924C78.5144 19.4639 76.4099 17.1773 73.0141 17.1773H73.017ZM75.7472 21.7178C75.7472 21.7547 75.7472 21.7917 75.7102 21.8287C75.7102 21.8287 75.6733 21.8656 75.5993 21.8656H70.4687C70.4318 21.8656 70.3948 21.8287 70.3578 21.8287C70.3578 21.8287 70.3209 21.7917 70.3209 21.7178C70.4422 21.1055 70.7752 20.5554 71.2613 20.1639C71.7475 19.7723 72.3559 19.5643 72.98 19.5762C74.5442 19.5762 75.5382 20.3868 75.7472 21.7178ZM90.536 17.5115H89.1709C89.0007 17.5189 88.84 17.5924 88.7232 17.7164C88.6063 17.8404 88.5425 18.0052 88.5452 18.1756C88.5452 18.2495 88.4713 18.2865 88.4713 18.2865C88.4343 18.2865 88.3973 18.3234 88.3604 18.2865C87.6593 17.6608 86.6995 17.3266 85.4452 17.3266C82.3808 17.3266 80.1668 19.6871 80.1668 22.9009C80.1668 26.1146 82.3823 28.4751 85.4452 28.4751C86.59 28.4751 87.5868 28.1054 88.3248 27.4413C88.3618 27.4043 88.4357 27.4043 88.4357 27.4043C88.4727 27.4043 88.5097 27.4413 88.5097 27.5153V27.9945C88.5097 30.2455 87.5143 31.2651 85.4097 31.2651C84.0801 31.2651 83.0108 30.4545 82.715 29.1605C82.678 29.0126 82.5671 28.8647 82.4192 28.7538C82.2724 28.676 82.1035 28.65 81.94 28.6799L80.6104 28.9756C80.2777 29.0496 80.0417 29.3823 80.1312 29.7506C80.6105 32.0756 82.715 33.664 85.3727 33.664C87.3664 33.664 88.8794 33.0739 89.8762 31.8552C90.6867 30.8598 91.1318 29.4947 91.1318 27.9049V18.1514C91.1688 17.8186 90.873 17.5257 90.5417 17.5257L90.536 17.5115ZM85.7652 26.1487C83.9564 26.1487 82.8501 24.8931 82.8501 22.9009C82.8501 20.9086 83.9948 19.653 85.7652 19.653C87.4631 19.653 88.6447 20.9328 88.6447 22.9009C88.6447 24.8689 87.4645 26.1487 85.7652 26.1487ZM106.659 17.2129C105.146 17.2129 103.928 17.7817 103.115 18.8368C103.078 18.8738 103.041 18.9107 103.004 18.9107C102.967 18.9107 102.93 18.8738 102.93 18.8738C102.266 17.84 101.084 17.2129 99.7193 17.2129C98.6485 17.2129 97.5778 17.5826 96.8753 18.2467C96.8013 18.2836 96.7644 18.2836 96.7274 18.2836C96.6904 18.2836 96.6535 18.2467 96.6535 18.1727C96.6535 17.84 96.3577 17.547 96.0278 17.547H94.6982C94.3655 17.547 94.0725 17.8428 94.0725 18.1727V28.3613C94.0725 28.7311 94.3683 28.987 94.6982 28.987H96.0633C96.3961 28.987 96.689 28.6912 96.689 28.3613V22.123C96.689 20.61 97.6133 19.6132 98.9642 19.6132C100.773 19.6132 101.032 21.0153 101.032 21.8642V28.3628C101.032 28.7325 101.328 28.9884 101.657 28.9884H103.023C103.355 28.9884 103.648 28.6927 103.648 28.3628V22.0875C103.648 20.6114 104.573 19.5776 105.923 19.5776C107.732 19.5776 107.991 20.9797 107.991 21.8287V28.3272C107.991 28.6969 108.287 28.9529 108.617 28.9529H109.982C110.315 28.9529 110.608 28.6571 110.608 28.3272V21.6068C110.645 18.578 108.651 17.1986 106.62 17.1986L106.659 17.2129ZM118.325 17.1773C115.63 17.1773 112.824 19.4283 112.824 23.2308C112.824 25.0395 113.415 26.6265 114.559 27.7342C115.593 28.768 117.034 29.3582 118.584 29.3582C120.909 29.3582 122.754 28.1395 123.603 26.1103C123.64 26.0292 123.659 25.9412 123.659 25.8522C123.659 25.7632 123.64 25.6752 123.603 25.5941C123.529 25.4462 123.381 25.2984 123.233 25.2614L122.089 24.8547C121.756 24.7438 121.425 24.8917 121.314 25.1874C120.835 26.3321 119.912 26.9223 118.584 26.9223C116.997 26.9223 115.778 25.8515 115.555 24.2631C115.555 24.2262 115.555 24.1892 115.592 24.1522C115.592 24.1522 115.629 24.1153 115.703 24.1153H123.197C123.529 24.1153 123.822 23.8564 123.822 23.5251V23.1924C123.859 19.4639 121.755 17.1773 118.322 17.1773H118.325ZM115.815 21.8656C115.778 21.8656 115.741 21.8287 115.704 21.8287C115.704 21.8287 115.667 21.7917 115.667 21.7178C115.788 21.1055 116.121 20.5554 116.607 20.1639C117.094 19.7723 117.702 19.5643 118.326 19.5762C119.802 19.5762 120.836 20.3868 121.056 21.7178C121.056 21.7547 121.056 21.7917 121.019 21.8287C121.019 21.8287 120.982 21.8656 120.909 21.8656H115.815ZM131.909 17.2129C130.764 17.2129 129.768 17.6196 128.994 18.3576C128.957 18.3945 128.883 18.3945 128.846 18.3945C128.809 18.3945 128.772 18.3576 128.772 18.2836V18.2097C128.772 17.8769 128.476 17.584 128.146 17.584H126.817C126.484 17.584 126.191 17.8798 126.191 18.2097V28.3983C126.191 28.768 126.487 29.024 126.817 29.024H128.182C128.515 29.024 128.808 28.7282 128.808 28.3983V22.3833C128.808 21.0537 129.398 19.6146 131.083 19.6146C132.596 19.6146 133.358 20.4636 133.358 22.1244V28.3244C133.358 28.6941 133.654 28.95 133.984 28.95H135.349C135.682 28.95 135.975 28.6543 135.975 28.3244V21.7917C136.049 18.9477 134.462 17.2129 131.879 17.2129H131.909ZM142.517 19.9459H144.104C144.437 19.9459 144.73 19.6502 144.73 19.3203V18.14C144.73 17.8073 144.434 17.5143 144.104 17.5143H142.503C142.429 17.5143 142.392 17.4404 142.392 17.4034V14.7101C142.392 14.3774 142.096 14.0845 141.766 14.0845H140.586C140.253 14.0845 139.96 14.3802 139.96 14.7101V16.1122C139.96 16.7763 139.702 17.5513 138.521 17.5513H138.263C137.93 17.5513 137.637 17.8471 137.637 18.177V19.3572C137.637 19.69 137.933 19.9829 138.263 19.9829H139.592C139.666 19.9829 139.74 20.0569 139.74 20.0938V25.742C139.74 27.8096 140.996 29.1008 143.062 29.1008C143.631 29.1008 144.057 29.0268 144.281 28.9899C144.576 28.9159 144.76 28.6571 144.76 28.3642V27.2934C144.76 27.1086 144.686 26.9237 144.538 26.8142C144.39 26.7047 144.205 26.6293 144.059 26.6663C143.911 26.6663 143.763 26.7033 143.652 26.7033C142.728 26.7033 142.372 26.3705 142.372 25.4477V20.0953C142.409 20.0213 142.446 19.9474 142.52 19.9474L142.517 19.9459Z" fill="black"/>
<path d="M27.4809 27.3221H2.69437C1.55595 27.3221 0.624512 26.3907 0.624512 25.2522C0.624512 24.1138 1.55595 23.1824 2.69437 23.1824H27.4809C28.6193 23.1824 29.5508 24.1138 29.5508 25.2522C29.5508 26.3907 28.6193 27.3221 27.4809 27.3221Z" fill="black"/>
<path d="M22.2026 40.0001C20.1845 40.0001 18.1663 39.6896 16.2517 39.1204C15.1651 38.7582 14.5441 37.6197 14.9063 36.5331C15.2685 35.4464 16.407 34.8254 17.4936 35.1877C18.9943 35.6534 20.5984 35.9121 22.2026 35.9121C29.2401 35.9121 35.3462 31.4102 37.3643 24.6831C37.6748 23.5965 38.8649 22.9755 39.9516 23.286C41.0383 23.5965 41.6592 24.7866 41.3487 25.8733C38.7097 34.308 31.0512 40.0001 22.2026 40.0001Z" fill="black"/>
<path d="M41.6596 16.8174H16.8731C15.7347 16.8174 14.8032 15.886 14.8032 14.7476C14.8032 13.6092 15.7347 12.6777 16.8731 12.6777H41.6596C42.798 12.6777 43.7295 13.6092 43.7295 14.7476C43.7295 15.886 42.798 16.8174 41.6596 16.8174Z" fill="black"/>
<path d="M5.02284 16.8176C4.81585 16.8176 4.60887 16.7658 4.40188 16.7141C3.31521 16.4036 2.69425 15.2135 3.00473 14.1268C5.6438 5.69211 13.3023 0 22.2027 0C24.2208 0 26.2389 0.310479 28.1535 0.87969C29.2402 1.24191 29.8611 2.38034 29.4989 3.46701C29.1367 4.55369 27.9983 5.17464 26.9116 4.81242C25.4109 4.3467 23.8068 4.08797 22.2027 4.08797C15.1651 4.08797 9.05906 8.58991 7.04095 15.3169C6.73047 16.2484 5.90253 16.8176 5.02284 16.8176Z" fill="black"/>
<path d="M34.4668 8.95197C35.61 8.95197 36.5367 8.02526 36.5367 6.88211C36.5367 5.73896 35.61 4.81226 34.4668 4.81226C33.3237 4.81226 32.397 5.73896 32.397 6.88211C32.397 8.02526 33.3237 8.95197 34.4668 8.95197Z" fill="black"/>
<path d="M9.88724 35.2391C11.0304 35.2391 11.9571 34.3124 11.9571 33.1692C11.9571 32.0261 11.0304 31.0994 9.88724 31.0994C8.74409 31.0994 7.81738 32.0261 7.81738 33.1692C7.81738 34.3124 8.74409 35.2391 9.88724 35.2391Z" fill="black"/>
</svg>
